<?xml version="1.0" standalone="no"?>
<!DOCTYPE svg PUBLIC "-//W3C//DTD SVG 20010904//EN"
 "http://www.w3.org/TR/2001/REC-SVG-20010904/DTD/svg10.dtd">
<svg version="1.0" xmlns="http://www.w3.org/2000/svg"
 width="1920.000000pt" height="1920.000000pt" viewBox="0 0 1920.000000 1920.000000"
 preserveAspectRatio="xMidYMid meet">
<metadata>
Created by potrace 1.14, written by Peter Selinger 2001-2017
</metadata>
<g transform="translate(0.000000,1920.000000) scale(0.100000,-0.100000)"
fill="#000000" stroke="none">
<path d="M9176 16468 c-225 -486 -413 -886 -418 -889 -5 -3 -6 -12 -3 -20 2
-8 -338 -750 -758 -1649 l-763 -1635 -394 -3 c-388 -3 -446 0 -435 17 3 5 -1
16 -9 24 -8 8 -12 17 -9 21 4 3 2 6 -4 6 -5 0 -10 6 -10 14 0 22 -25 76 -35
76 -5 0 -6 5 -3 10 3 6 1 10 -5 10 -6 0 -8 5 -5 10 3 6 1 10 -4 10 -6 0 -10 3
-9 8 4 14 -24 82 -33 82 -6 0 -7 5 -4 10 3 6 1 10 -5 10 -6 0 -8 5 -5 10 3 6
1 10 -5 10 -6 0 -8 5 -5 10 3 6 1 10 -5 10 -6 0 -8 5 -5 10 3 6 2 10 -3 10 -5
0 -9 6 -9 14 0 22 -25 76 -35 76 -5 0 -6 5 -3 10 3 6 1 10 -4 10 -6 0 -10 3
-9 8 4 13 -26 82 -35 82 -4 0 -5 5 -2 10 3 6 1 10 -5 10 -6 0 -9 4 -5 9 3 5
-1 16 -9 24 -8 8 -12 17 -9 21 4 3 1 6 -5 6 -7 0 -11 3 -10 8 4 14 -24 82 -33
82 -6 0 -7 5 -4 10 3 6 1 10 -5 10 -6 0 -8 5 -5 10 3 6 1 10 -5 10 -6 0 -8 5
-5 10 3 6 1 10 -5 10 -6 0 -8 5 -5 10 3 6 2 10 -2 10 -5 0 -10 10 -10 22 -1
13 -7 24 -13 26 -5 2 -8 8 -4 13 3 5 0 9 -6 9 -6 0 -9 4 -5 9 3 5 -1 16 -9 24
-8 8 -12 17 -9 21 4 3 1 6 -5 6 -7 0 -11 3 -10 8 4 14 -24 82 -33 82 -6 0 -7
5 -4 10 3 6 1 10 -5 10 -6 0 -8 5 -5 10 3 6 1 10 -5 10 -6 0 -8 5 -5 10 3 6 1
10 -5 10 -6 0 -8 5 -5 10 3 6 2 10 -2 10 -5 0 -9 10 -10 22 -1 11 -6 24 -10
27 -4 3 -9 13 -11 21 -2 8 -8 17 -13 18 -5 2 -7 8 -3 13 3 5 0 9 -6 9 -6 0 -8
5 -5 10 3 6 1 10 -4 10 -6 0 -10 3 -9 8 4 14 -24 82 -33 82 -6 0 -7 5 -4 10 3
6 1 10 -5 10 -6 0 -9 4 -5 9 3 5 -1 16 -9 24 -8 8 -12 17 -9 21 4 3 2 6 -4 6
-5 0 -10 6 -10 14 0 22 -25 76 -35 76 -5 0 -6 5 -3 10 3 6 1 10 -5 10 -6 0 -8
5 -5 10 3 6 1 10 -4 10 -6 0 -10 3 -9 8 3 15 -15 62 -24 62 -5 0 -6 5 -3 10 3
6 1 10 -5 10 -6 0 -8 5 -5 10 3 6 1 10 -5 10 -6 0 -8 5 -5 10 3 6 1 10 -5 10
-6 0 -8 5 -5 10 3 6 1 10 -6 10 -7 0 -9 3 -6 6 3 4 1 16 -5 28 -7 11 -13 28
-14 36 -2 8 -8 16 -14 18 -5 2 -8 8 -4 13 3 5 0 9 -6 9 -6 0 -8 5 -5 10 3 6 1
10 -4 10 -6 0 -10 3 -9 8 4 13 -26 82 -35 82 -4 0 -5 5 -2 10 3 6 1 10 -5 10
-6 0 -9 4 -5 9 3 5 -1 16 -9 24 -8 8 -12 17 -9 21 4 3 2 6 -4 6 -5 0 -10 6
-10 14 0 22 -25 76 -35 76 -5 0 -6 5 -3 10 3 6 1 10 -5 10 -6 0 -8 5 -5 10 3
6 1 10 -4 10 -6 0 -10 3 -9 8 4 14 -24 82 -33 82 -6 0 -7 5 -4 10 3 6 1 10 -5
10 -6 0 -8 5 -5 10 3 6 1 10 -5 10 -6 0 -8 5 -5 10 3 6 1 10 -5 10 -6 0 -8 5
-5 10 3 6 2 10 -3 10 -5 0 -9 6 -9 14 0 22 -25 76 -35 76 -5 0 -6 5 -3 10 3 6
1 10 -5 10 -6 0 -8 5 -5 10 3 6 1 10 -4 10 -6 0 -10 3 -9 8 3 15 -15 62 -24
62 -5 0 -6 5 -3 10 3 6 1 10 -5 10 -6 0 -9 4 -5 9 3 5 -1 16 -9 24 -8 8 -12
17 -9 21 4 3 1 6 -6 6 -7 0 -9 5 -6 10 3 6 1 10 -6 10 -7 0 -10 3 -6 6 8 8
-13 64 -25 64 -5 0 -6 5 -3 10 3 6 1 10 -5 10 -6 0 -8 5 -5 10 3 6 1 10 -5 10
-6 0 -9 4 -5 9 3 5 0 15 -7 23 -7 7 -15 22 -16 33 -2 11 -8 22 -13 23 -5 2 -7
8 -3 13 3 5 0 9 -6 9 -6 0 -9 4 -5 9 3 5 -1 16 -9 24 -8 8 -12 17 -9 21 4 3 1
6 -5 6 -7 0 -11 3 -10 8 4 14 -24 82 -33 82 -6 0 -7 5 -4 10 3 6 1 10 -5 10
-6 0 -8 5 -5 10 3 6 1 10 -5 10 -6 0 -8 5 -5 10 3 6 1 10 -5 10 -6 0 -8 5 -5
10 3 6 2 10 -2 10 -5 0 -9 10 -10 22 -1 11 -6 24 -10 27 -4 3 -9 13 -11 21 -2
8 -8 17 -13 18 -5 2 -7 8 -3 13 3 5 0 9 -6 9 -6 0 -8 5 -5 10 3 6 1 10 -4 10
-6 0 -10 3 -9 8 4 14 -24 82 -33 82 -6 0 -7 5 -4 10 3 6 1 10 -5 10 -6 0 -9 4
-5 9 3 5 -1 16 -9 24 -8 8 -12 17 -9 21 4 3 2 6 -3 6 -5 0 -11 10 -11 22 -1
13 -7 24 -13 26 -5 2 -8 7 -5 12 3 4 -1 10 -8 13 -14 5 -228 -169 -427 -349
-253 -228 -732 -733 -726 -767 6 -34 29 -87 37 -87 6 0 7 -4 4 -10 -3 -5 -1
-10 5 -10 6 0 8 -4 5 -10 -3 -5 -1 -10 5 -10 6 0 8 -4 5 -10 -3 -5 -1 -10 5
-10 6 0 8 -4 5 -10 -3 -5 -2 -10 3 -10 5 0 9 -6 9 -14 0 -22 25 -76 35 -76 5
0 6 -4 3 -10 -3 -5 -1 -10 4 -10 6 0 10 -3 9 -7 -4 -15 24 -83 33 -83 6 0 7
-4 4 -10 -3 -5 -1 -10 5 -10 6 0 8 -4 5 -10 -3 -5 -1 -10 5 -10 6 0 8 -4 5
-10 -3 -5 -1 -10 5 -10 6 0 8 -4 5 -10 -3 -5 -2 -10 2 -10 5 0 9 -10 10 -22 1
-11 6 -24 10 -27 4 -3 9 -13 11 -21 2 -8 8 -17 13 -18 5 -2 7 -8 3 -13 -3 -5
0 -9 6 -9 6 0 8 -4 5 -10 -3 -5 -1 -10 4 -10 6 0 10 -3 9 -7 -4 -15 24 -83 33
-83 6 0 7 -4 4 -10 -3 -5 -1 -10 5 -10 6 0 9 -4 5 -9 -3 -5 1 -16 9 -24 8 -8
12 -17 9 -21 -4 -3 -2 -6 4 -6 5 0 10 -6 10 -14 0 -22 25 -76 35 -76 5 0 6 -4
3 -10 -3 -5 -1 -10 5 -10 6 0 8 -4 5 -10 -3 -5 -1 -10 4 -10 6 0 10 -3 9 -7
-4 -15 24 -83 33 -83 6 0 7 -4 4 -10 -3 -5 -1 -10 5 -10 6 0 8 -4 5 -10 -3 -5
-1 -10 5 -10 6 0 8 -4 5 -10 -3 -5 -1 -10 5 -10 6 0 8 -4 5 -10 -3 -5 -2 -10
3 -10 5 0 9 -6 9 -14 0 -22 25 -76 35 -76 5 0 6 -4 3 -10 -3 -5 -1 -10 5 -10
6 0 8 -4 5 -10 -3 -5 -1 -10 4 -10 6 0 10 -3 9 -7 -3 -16 15 -63 24 -63 5 0 6
-4 3 -10 -3 -5 -1 -10 5 -10 6 0 9 -4 5 -9 -3 -5 1 -16 9 -24 8 -8 12 -17 9
-21 -4 -3 -1 -6 5 -6 7 0 11 -3 10 -7 -4 -15 24 -83 33 -83 6 0 7 -4 4 -10 -3
-5 -1 -10 5 -10 6 0 8 -4 5 -10 -3 -5 -1 -10 4 -10 6 0 10 -3 9 -7 -4 -14 26
-83 35 -83 4 0 5 -4 2 -10 -3 -5 -1 -10 5 -10 6 0 9 -4 5 -9 -3 -5 1 -16 9
-24 8 -8 12 -17 9 -21 -4 -3 -1 -6 5 -6 7 0 11 -3 10 -7 -4 -15 24 -83 33 -83
6 0 7 -4 4 -10 -3 -5 -1 -10 5 -10 6 0 8 -4 5 -10 -3 -5 -1 -10 5 -10 6 0 9
-4 5 -9 -3 -5 0 -15 7 -23 7 -7 15 -22 16 -33 2 -11 7 -22 10 -25 4 -3 8 -12
10 -20 2 -8 8 -17 13 -18 5 -2 7 -8 3 -13 -3 -5 0 -9 6 -9 6 0 8 -4 5 -10 -3
-5 -2 -10 3 -10 5 0 9 -6 9 -14 0 -22 25 -76 35 -76 5 0 6 -4 3 -10 -3 -5 -1
-10 5 -10 6 0 9 -4 5 -9 -3 -5 1 -16 9 -24 8 -8 12 -17 9 -21 -4 -3 -1 -6 6
-6 7 0 10 -4 6 -9 -3 -5 -1 -12 5 -16 6 -4 8 -11 5 -16 -4 -5 -1 -9 5 -9 6 0
9 -4 5 -9 -3 -5 1 -16 9 -24 8 -8 12 -17 9 -21 -4 -3 -1 -6 6 -6 7 0 9 -4 6
-10 -3 -5 -1 -10 6 -10 7 0 10 -3 6 -6 -8 -9 13 -64 26 -66 7 -2 -162 -5 -375
-8 l-387 -5 347 -745 348 -745 389 -5 c215 -3 391 -7 393 -8 2 -1 0 -6 -3 -12
-3 -5 -1 -10 5 -10 6 0 8 -4 5 -10 -3 -5 -2 -10 3 -10 5 0 9 -6 9 -14 0 -22
25 -76 35 -76 5 0 6 -4 3 -10 -3 -5 -1 -10 5 -10 6 0 8 -4 5 -10 -3 -5 -1 -10
5 -10 6 0 8 -4 5 -10 -3 -5 -1 -10 5 -10 6 0 8 -4 5 -10 -3 -5 -2 -10 2 -10 5
0 9 -10 10 -22 1 -11 6 -24 10 -27 4 -3 9 -13 11 -21 2 -8 8 -17 13 -18 5 -2
7 -8 3 -13 -3 -5 0 -9 6 -9 6 0 8 -4 5 -10 -3 -5 -1 -10 6 -10 7 0 10 -3 6 -6
-8 -8 13 -64 25 -64 5 0 6 -4 3 -10 -3 -5 -1 -10 5 -10 6 0 8 -4 5 -10 -3 -5
-1 -10 5 -10 6 0 9 -4 5 -9 -3 -5 0 -15 7 -23 7 -7 15 -22 16 -33 2 -11 8 -23
14 -26 5 -3 9 -8 7 -10 -5 -9 13 -49 22 -49 6 0 7 -4 4 -10 -3 -5 -1 -10 4
-10 6 0 10 -3 9 -7 -4 -15 24 -83 33 -83 6 0 7 -4 4 -10 -3 -5 -1 -10 5 -10 6
0 8 -4 5 -10 -3 -5 -1 -10 5 -10 6 0 8 -4 5 -10 -3 -5 -1 -10 5 -10 6 0 8 -4
5 -10 -3 -5 -2 -10 2 -10 5 0 9 -10 10 -22 1 -11 6 -24 10 -27 4 -3 9 -13 11
-21 2 -8 8 -17 13 -18 5 -2 7 -8 3 -13 -3 -5 0 -9 6 -9 6 0 8 -4 5 -10 -3 -5
-1 -10 4 -10 6 0 10 -3 9 -7 -4 -15 24 -83 33 -83 6 0 7 -4 4 -10 -3 -5 -1
-10 5 -10 6 0 9 -4 5 -9 -3 -5 1 -16 9 -24 8 -8 12 -17 9 -21 -4 -3 -2 -6 4
-6 5 0 10 -6 10 -14 0 -22 25 -76 35 -76 5 0 6 -4 3 -10 -3 -5 -1 -10 5 -10 6
0 8 -4 5 -10 -3 -5 -1 -10 4 -10 6 0 10 -3 9 -7 -3 -16 15 -63 24 -63 5 0 6
-4 3 -10 -3 -5 -1 -10 5 -10 6 0 8 -4 5 -10 -3 -5 -1 -10 5 -10 6 0 8 -4 5
-10 -3 -5 -1 -10 5 -10 6 0 8 -4 5 -10 -3 -5 -1 -10 5 -10 6 0 8 -4 5 -10 -3
-5 -2 -10 3 -10 5 0 9 -6 9 -14 0 -22 25 -76 35 -76 5 0 6 -4 3 -10 -3 -5 -1
-10 4 -10 6 0 10 -3 9 -7 -4 -14 26 -83 35 -83 4 0 5 -4 2 -10 -3 -5 -1 -10 5
-10 6 0 9 -4 5 -9 -3 -5 1 -16 9 -24 8 -8 12 -17 9 -21 -4 -3 -1 -6 5 -6 7 0
11 -3 10 -7 -4 -15 24 -83 33 -83 6 0 7 -4 4 -10 -3 -5 -1 -10 5 -10 6 0 8 -4
5 -10 -3 -5 -1 -10 4 -10 6 0 10 -3 9 -7 -4 -14 26 -83 35 -83 4 0 5 -5 2 -10
-3 -5 -1 -10 5 -10 6 0 8 -4 5 -10 -3 -5 -1 -10 5 -10 6 0 8 -4 5 -10 -3 -5
-1 -10 5 -10 6 0 8 -4 5 -10 -3 -5 -2 -10 3 -10 5 0 9 -6 9 -14 0 -22 25 -76
35 -76 5 0 6 -4 3 -10 -3 -5 -1 -10 5 -10 6 0 8 -4 5 -10 -3 -5 -1 -10 4 -10
6 0 10 -3 9 -7 -4 -14 26 -83 35 -83 4 0 6 -4 2 -9 -3 -5 1 -16 9 -24 8 -8 12
-17 9 -21 -4 -3 -1 -6 6 -6 7 0 9 -4 6 -10 -3 -5 -1 -10 6 -10 7 0 10 -3 6 -6
-3 -3 -2 -17 3 -30 l9 -24 -379 -2 -379 -3 348 -745 348 -745 484 -7 c266 -5
1131 -5 1922 -2 l1438 6 -14 -33 c-8 -19 -166 -359 -352 -756 l-337 -723 -829
0 c-541 0 -830 -3 -834 -10 -3 -5 -1 -10 5 -10 6 0 8 -5 5 -10 -3 -6 -1 -10 4
-10 6 0 10 -3 9 -7 -3 -16 15 -63 24 -63 5 0 6 -4 3 -10 -3 -5 -1 -10 5 -10 6
0 8 -4 5 -10 -3 -5 -1 -10 5 -10 6 0 8 -4 5 -10 -3 -5 -1 -10 5 -10 6 0 8 -4
5 -10 -3 -5 -1 -10 6 -10 7 0 9 -3 6 -6 -3 -4 -1 -16 5 -28 7 -11 13 -28 14
-36 2 -8 8 -16 14 -18 5 -2 8 -8 4 -13 -3 -5 0 -9 6 -9 6 0 8 -4 5 -10 -3 -5
-1 -10 4 -10 6 0 10 -3 9 -7 -4 -14 26 -83 35 -83 4 0 5 -4 2 -10 -3 -5 -1
-10 5 -10 6 0 9 -4 5 -9 -3 -5 1 -16 9 -24 8 -8 12 -17 9 -21 -4 -3 -2 -6 4
-6 5 0 10 -6 10 -14 0 -22 25 -76 35 -76 5 0 6 -4 3 -10 -3 -5 -1 -10 5 -10 6
0 8 -4 5 -10 -3 -6 -1 -10 4 -10 6 0 10 -3 9 -7 -4 -15 24 -83 33 -83 6 0 7
-5 4 -10 -3 -6 -1 -10 5 -10 6 0 8 -4 5 -10 -3 -5 -1 -10 5 -10 6 0 8 -4 5
-10 -3 -5 -1 -10 5 -10 6 0 8 -4 5 -10 -3 -5 -2 -10 3 -10 5 0 9 -6 9 -14 0
-22 25 -76 35 -76 5 0 6 -4 3 -10 -3 -5 -1 -10 5 -10 6 0 8 -4 5 -10 -3 -5 -1
-10 4 -10 6 0 10 -3 9 -7 -3 -16 15 -63 24 -63 5 0 6 -4 3 -10 -3 -5 -1 -10 5
-10 6 0 9 -4 5 -9 -3 -5 1 -16 9 -24 8 -8 12 -17 9 -21 -4 -3 -1 -6 6 -6 7 0
9 -4 6 -10 -3 -5 -1 -10 6 -10 7 0 10 -3 6 -6 -8 -8 13 -64 25 -64 5 0 6 -4 3
-10 -3 -5 -1 -10 5 -10 6 0 8 -4 5 -10 -3 -5 -1 -10 5 -10 6 0 9 -4 5 -9 -3
-5 0 -15 7 -23 7 -7 15 -22 16 -33 2 -11 8 -22 13 -23 5 -2 7 -8 3 -13 -3 -5
0 -9 6 -9 6 0 9 -4 5 -9 -3 -5 1 -16 9 -24 8 -8 12 -17 9 -21 -4 -3 -1 -6 5
-6 7 0 11 -3 10 -7 -4 -15 24 -83 33 -83 6 0 7 -4 4 -10 -3 -5 -1 -10 5 -10 6
0 8 -4 5 -10 -3 -5 -1 -10 5 -10 6 0 8 -5 5 -10 -3 -6 -1 -10 5 -10 6 0 8 -4
5 -10 -3 -5 -2 -10 2 -10 5 0 9 -10 10 -22 1 -11 6 -24 10 -27 4 -3 9 -13 11
-21 2 -8 8 -17 13 -18 5 -2 7 -8 3 -13 -3 -5 0 -9 6 -9 6 0 8 -4 5 -10 -3 -5
-1 -10 4 -10 6 0 10 -3 9 -7 -4 -15 24 -83 33 -83 6 0 7 -4 4 -10 -3 -5 -2
-10 3 -10 5 0 9 -6 9 -12 0 -27 821 -1773 834 -1776 10 -2 142 275 423 880
225 486 413 886 418 889 5 3 6 12 3 20 -2 8 338 750 758 1649 l763 1635 377 3
377 2 17 33 c9 17 16 35 15 40 -1 4 3 7 9 7 5 0 7 5 4 10 -3 6 -1 10 5 10 6 0
9 4 5 9 -3 5 1 16 9 24 8 8 12 17 9 21 -4 3 -1 6 6 6 7 0 10 4 6 9 -3 5 -1 12
5 16 6 4 8 11 5 16 -4 5 -1 9 5 9 6 0 9 4 5 9 -3 5 1 16 9 24 8 8 12 17 9 21
-4 3 0 6 7 6 7 0 11 3 7 6 -3 4 4 25 15 48 12 22 21 44 20 49 -1 4 3 7 9 7 5
0 7 5 4 10 -3 6 -1 10 5 10 6 0 9 4 5 9 -3 5 2 17 11 25 8 9 13 16 9 16 -3 0
0 10 7 23 7 12 11 25 10 30 -1 4 3 7 9 7 5 0 7 4 4 10 -3 5 -1 10 5 10 6 0 8
5 5 10 -3 6 -1 10 5 10 6 0 8 4 5 10 -3 5 -1 10 4 10 6 0 10 3 9 8 -4 13 26
82 35 82 4 0 5 5 2 10 -3 6 -1 10 5 10 6 0 8 5 5 10 -3 6 -1 10 5 10 6 0 8 5
5 10 -3 6 -1 10 5 10 6 0 8 4 5 10 -3 6 -1 10 6 10 7 0 9 3 6 7 -4 3 -2 12 3
19 6 6 13 23 15 35 3 13 9 25 15 27 6 2 8 8 4 13 -3 5 0 9 6 9 6 0 8 5 5 10
-3 6 -1 10 5 10 6 0 9 4 5 9 -3 5 2 17 11 25 8 9 12 16 8 16 -3 0 -1 6 5 13 6
8 8 17 4 20 -3 4 -1 7 6 7 7 0 9 4 6 10 -3 6 -1 10 5 10 6 0 8 4 5 10 -3 6 -1
10 5 10 6 0 8 5 5 10 -3 6 -1 10 5 10 6 0 8 5 5 10 -3 6 -1 10 5 10 6 0 9 4 5
9 -3 5 -1 12 5 16 5 3 10 15 10 25 0 10 7 25 15 33 8 8 11 17 8 21 -4 3 -1 6
5 6 7 0 11 3 10 8 -4 14 13 52 23 52 6 0 8 4 4 9 -3 5 -1 12 5 16 6 4 8 11 5
16 -4 5 -1 9 5 9 6 0 8 5 5 10 -3 6 -1 10 5 10 6 0 8 5 5 10 -3 6 -1 10 5 10
6 0 8 5 5 10 -3 5 -1 10 5 10 6 0 9 4 6 9 -3 4 1 17 9 27 8 10 15 27 15 37 0
9 5 17 11 17 5 0 7 5 4 10 -3 6 -1 10 5 10 6 0 8 5 5 10 -3 6 -1 10 5 10 6 0
9 4 5 9 -3 5 2 17 11 25 14 15 -18 16 -365 16 -210 0 -381 1 -381 3 0 2 244
527 543 1168 l543 1164 385 5 c211 3 385 7 387 8 1 1 1 5 0 10 -4 13 26 82 35
82 4 0 5 5 2 10 -3 6 -1 10 5 10 6 0 8 5 5 10 -3 6 -1 10 5 10 6 0 8 5 5 10
-3 6 -1 10 5 10 6 0 8 5 5 10 -3 6 -1 10 5 10 6 0 9 4 5 9 -3 5 -1 12 5 16 6
4 8 11 5 16 -4 5 -1 9 5 9 6 0 8 5 5 10 -3 6 -1 10 5 10 6 0 8 5 5 10 -3 6 -1
10 5 10 6 0 8 5 5 10 -3 6 -1 10 6 10 7 0 10 3 6 6 -3 4 4 25 15 48 12 22 21
44 20 49 -1 4 3 7 9 7 5 0 7 5 4 10 -3 6 -1 10 5 10 6 0 9 4 5 9 -3 5 2 17 11
25 8 9 13 16 9 16 -3 0 0 10 7 23 7 12 11 25 10 30 -1 4 3 7 9 7 5 0 8 4 4 9
-3 5 1 16 9 24 8 8 12 17 9 21 -4 3 -1 6 5 6 7 0 11 3 10 8 -4 13 26 82 35 82
4 0 5 5 2 10 -3 6 -1 10 5 10 6 0 8 5 5 10 -3 6 -1 10 5 10 6 0 8 5 5 10 -3 6
-1 10 5 10 6 0 8 5 5 10 -3 6 -1 10 4 10 6 0 10 3 9 8 -1 4 3 17 10 28 6 12 8
24 5 28 -3 3 -1 6 6 6 7 0 9 5 6 10 -3 6 -1 10 5 10 6 0 8 5 5 10 -3 6 -1 10
5 10 6 0 8 5 5 10 -3 6 -1 10 4 10 6 0 10 3 9 8 -4 13 26 82 35 82 4 0 5 5 2
10 -3 6 -1 10 5 10 6 0 8 5 5 10 -3 6 -1 10 5 10 6 0 8 5 5 10 -3 6 -1 10 5
10 6 0 8 5 5 10 -3 6 -1 10 6 10 7 0 9 3 6 7 -4 3 -2 12 3 19 6 6 13 23 15 35
3 13 9 25 15 27 6 2 8 8 4 13 -3 5 0 9 6 9 6 0 8 5 5 10 -3 6 -1 10 6 10 7 0
10 3 6 6 -3 4 1 21 10 38 10 17 16 34 15 39 -1 4 3 7 9 7 5 0 7 5 4 10 -3 6
-1 10 5 10 6 0 8 5 5 10 -3 6 -1 10 5 10 6 0 8 5 5 10 -3 6 -1 10 6 10 7 0 9
3 6 7 -4 3 0 17 9 30 8 14 17 34 20 46 2 12 8 23 14 25 6 2 8 8 4 13 -3 5 0 9
5 9 6 0 10 6 9 13 -2 9 -89 13 -375 17 l-373 5 513 1100 c282 605 525 1126
539 1157 l27 57 -111 128 c-148 169 -459 485 -633 641 -134 120 -393 337 -401
337 -3 0 -363 -769 -802 -1709 l-797 -1710 -1947 -2 -1947 -2 13 32 c7 17 165
356 351 754 l337 722 829 0 c541 0 830 3 834 10 3 6 1 10 -5 10 -6 0 -8 5 -5
10 3 6 1 10 -4 10 -6 0 -10 3 -9 8 3 15 -15 62 -24 62 -5 0 -6 5 -3 10 3 6 1
10 -5 10 -6 0 -8 5 -5 10 3 6 1 10 -5 10 -6 0 -8 5 -5 10 3 6 1 10 -5 10 -6 0
-8 5 -5 10 3 6 1 10 -6 10 -7 0 -9 3 -6 6 3 4 1 16 -5 28 -7 11 -13 28 -14 36
-2 8 -8 16 -14 18 -5 2 -8 8 -4 13 3 5 0 9 -6 9 -6 0 -8 5 -5 10 3 6 1 10 -4
10 -6 0 -10 3 -9 8 4 13 -26 82 -35 82 -4 0 -5 5 -2 10 3 6 1 10 -5 10 -6 0
-9 4 -5 9 3 5 -1 16 -9 24 -8 8 -12 17 -9 21 4 3 2 6 -4 6 -5 0 -10 6 -10 14
0 22 -25 76 -35 76 -5 0 -6 5 -3 10 3 6 1 10 -5 10 -6 0 -8 5 -5 10 3 6 1 10
-4 10 -6 0 -10 3 -9 8 4 14 -24 82 -33 82 -6 0 -7 5 -4 10 3 6 1 10 -5 10 -6
0 -8 5 -5 10 3 6 1 10 -5 10 -6 0 -8 5 -5 10 3 6 1 10 -5 10 -6 0 -8 5 -5 10
3 6 2 10 -3 10 -5 0 -9 6 -9 14 0 22 -25 76 -35 76 -5 0 -6 5 -3 10 3 6 1 10
-5 10 -6 0 -8 5 -5 10 3 6 1 10 -4 10 -6 0 -10 3 -9 8 3 15 -15 62 -24 62 -5
0 -6 5 -3 10 3 6 1 10 -5 10 -6 0 -9 4 -5 9 3 5 -1 16 -9 24 -8 8 -12 17 -9
21 4 3 1 6 -6 6 -7 0 -9 5 -6 10 3 6 1 10 -6 10 -7 0 -10 3 -6 6 8 8 -13 64
-25 64 -5 0 -6 5 -3 10 3 6 1 10 -5 10 -6 0 -8 5 -5 10 3 6 1 10 -5 10 -6 0
-9 4 -5 9 3 5 0 15 -7 23 -7 7 -15 22 -16 33 -2 11 -8 22 -13 23 -5 2 -7 8 -3
13 3 5 0 9 -6 9 -6 0 -9 4 -5 9 3 5 -1 16 -9 24 -8 8 -12 17 -9 21 4 3 1 6 -5
6 -7 0 -11 3 -10 8 4 14 -24 82 -33 82 -6 0 -7 5 -4 10 3 6 1 10 -5 10 -6 0
-8 5 -5 10 3 6 1 10 -5 10 -6 0 -8 5 -5 10 3 6 1 10 -5 10 -6 0 -8 5 -5 10 3
6 2 10 -2 10 -5 0 -9 10 -10 22 -1 11 -6 24 -10 27 -4 3 -9 13 -11 21 -2 8 -8
17 -13 18 -5 2 -7 8 -3 13 3 5 0 9 -6 9 -6 0 -8 5 -5 10 3 6 1 10 -4 10 -6 0
-10 3 -9 8 4 14 -24 82 -33 82 -6 0 -7 5 -4 10 3 6 2 10 -3 10 -5 0 -9 6 -9
13 0 26 -821 1772 -834 1775 -10 2 -142 -275 -423 -880z m2914 -5701 c0 -2
-244 -527 -543 -1168 l-543 -1164 -1385 -3 c-761 -1 -1394 0 -1407 3 -13 3
-20 10 -17 15 3 6 1 10 -5 10 -6 0 -8 5 -5 10 3 6 2 10 -3 10 -5 0 -9 6 -9 14
0 22 -25 76 -35 76 -5 0 -6 5 -3 10 3 6 1 10 -5 10 -6 0 -8 5 -5 10 3 6 1 10
-5 10 -6 0 -8 5 -5 10 3 6 1 10 -5 10 -6 0 -8 5 -5 10 3 6 2 10 -2 10 -5 0 -9
10 -10 22 -1 11 -6 24 -10 27 -4 3 -9 13 -11 21 -2 8 -8 17 -13 18 -5 2 -7 8
-3 13 3 5 0 9 -6 9 -6 0 -8 5 -5 10 3 6 1 10 -6 10 -7 0 -10 3 -6 6 8 8 -13
64 -25 64 -5 0 -6 5 -3 10 3 6 1 10 -5 10 -6 0 -8 5 -5 10 3 6 1 10 -5 10 -6
0 -9 4 -5 9 3 5 0 15 -7 23 -7 7 -15 22 -16 33 -2 11 -8 23 -14 26 -5 3 -9 10
-9 15 1 18 -11 44 -20 44 -6 0 -7 5 -4 10 3 6 1 10 -4 10 -6 0 -10 3 -9 8 4
14 -24 82 -33 82 -6 0 -7 5 -4 10 3 6 1 10 -5 10 -6 0 -8 5 -5 10 3 6 1 10 -5
10 -6 0 -8 5 -5 10 3 6 1 10 -5 10 -6 0 -8 5 -5 10 3 6 2 10 -2 10 -5 0 -9 10
-10 22 -1 11 -6 24 -10 27 -4 3 -9 13 -11 21 -2 8 -8 17 -13 18 -5 2 -7 8 -3
13 3 5 0 9 -6 9 -6 0 -8 5 -5 10 3 6 1 10 -4 10 -6 0 -10 3 -9 8 4 14 -24 82
-33 82 -6 0 -7 5 -4 10 3 6 1 10 -5 10 -6 0 -9 4 -5 9 3 5 -1 16 -9 24 -8 8
-12 17 -9 21 4 3 2 6 -4 6 -5 0 -10 6 -10 14 0 22 -25 76 -35 76 -5 0 -6 5 -3
10 3 6 1 10 -5 10 -6 0 -8 5 -5 10 3 6 1 10 -4 10 -6 0 -10 3 -9 8 3 15 -15
62 -24 62 -5 0 -6 5 -3 10 3 6 1 10 -5 10 -6 0 -8 5 -5 10 3 6 1 10 -5 10 -6
0 -8 5 -5 10 3 6 1 10 -5 10 -6 0 -8 5 -5 10 3 6 1 10 -5 10 -6 0 -8 5 -5 10
3 6 2 10 -3 10 -5 0 -9 6 -9 14 0 22 -25 76 -35 76 -5 0 -6 5 -3 10 3 6 1 10
-4 10 -6 0 -10 3 -9 8 4 13 -26 82 -35 82 -4 0 -5 5 -2 10 3 6 1 10 -5 10 -6
0 -9 4 -5 9 3 5 -1 16 -9 24 -8 8 -12 17 -9 21 4 3 1 6 -5 6 -7 0 -11 3 -10 8
4 14 -24 82 -33 82 -6 0 -7 5 -4 10 3 6 1 10 -5 10 -6 0 -8 5 -5 10 3 6 1 10
-4 10 -6 0 -10 3 -9 8 4 13 -26 82 -35 82 -4 0 -5 5 -2 10 3 6 1 10 -5 10 -6
0 -8 5 -5 10 3 6 1 10 -5 10 -6 0 -8 5 -5 10 3 6 1 10 -5 10 -6 0 -8 5 -5 10
3 6 2 10 -3 10 -5 0 -9 6 -9 14 0 22 -25 76 -35 76 -5 0 -6 5 -3 10 3 6 1 10
-5 10 -6 0 -8 5 -5 10 3 6 1 10 -4 10 -6 0 -10 3 -9 8 4 13 -26 82 -35 82 -4
0 -6 4 -2 9 3 5 -1 16 -9 24 -8 8 -12 17 -9 21 4 3 1 6 -6 6 -7 0 -9 5 -6 10
3 6 1 10 -6 10 -7 0 -10 3 -6 6 3 3 2 17 -3 30 l-10 24 2485 0 c1367 0 2485
-1 2485 -3z"/>
<path d="M7670 17115 c-750 -192 -1401 -466 -2081 -872 -97 -58 -176 -111
-176 -119 0 -8 3 -14 7 -14 7 0 35 -71 32 -82 -1 -5 3 -8 9 -8 5 0 7 -4 4 -10
-3 -5 -1 -10 5 -10 6 0 9 -4 6 -9 -4 -5 -1 -11 4 -13 6 -2 12 -10 14 -18 1 -8
7 -25 14 -36 6 -12 8 -24 5 -28 -3 -3 -1 -6 6 -6 7 0 9 -4 6 -10 -3 -5 -1 -10
5 -10 6 0 8 -4 5 -10 -3 -5 -1 -10 5 -10 6 0 8 -4 5 -10 -3 -5 -1 -10 5 -10 6
0 8 -4 5 -10 -3 -5 -2 -10 3 -10 9 0 27 -47 24 -62 -1 -5 3 -8 9 -8 5 0 7 -4
4 -10 -3 -5 -1 -10 5 -10 6 0 8 -4 5 -10 -3 -5 -2 -10 3 -10 10 0 35 -54 35
-76 0 -8 5 -14 10 -14 6 0 8 -3 4 -6 -3 -4 1 -13 9 -21 8 -8 12 -19 9 -24 -4
-5 -1 -9 5 -9 6 0 8 -4 5 -10 -3 -5 -2 -10 4 -10 9 0 37 -68 33 -82 -1 -5 3
-8 9 -8 5 0 7 -4 4 -10 -3 -5 -1 -10 5 -10 6 0 9 -4 6 -9 -4 -5 -2 -11 3 -13
5 -1 11 -10 13 -18 2 -8 7 -18 11 -21 4 -3 9 -16 10 -27 1 -12 5 -22 10 -22 4
0 5 -4 2 -10 -3 -5 -1 -10 5 -10 6 0 8 -4 5 -10 -3 -5 -1 -10 5 -10 6 0 8 -4
5 -10 -3 -5 -1 -10 5 -10 6 0 8 -4 5 -10 -3 -5 -2 -10 4 -10 9 0 37 -68 33
-82 -1 -5 3 -8 10 -8 6 0 9 -3 5 -6 -3 -4 1 -13 9 -21 8 -8 12 -19 9 -24 -4
-5 -1 -9 5 -9 6 0 9 -4 6 -9 -4 -5 -1 -11 4 -13 6 -2 12 -13 13 -26 0 -12 5
-22 10 -22 4 0 5 -4 2 -10 -3 -5 -1 -10 5 -10 6 0 8 -4 5 -10 -3 -5 -1 -10 5
-10 6 0 8 -4 5 -10 -3 -5 -1 -10 5 -10 6 0 8 -4 5 -10 -3 -5 -2 -10 4 -10 9 0
37 -68 33 -82 -1 -5 3 -8 10 -8 6 0 9 -3 5 -6 -3 -4 1 -13 9 -21 8 -8 12 -19
9 -24 -4 -5 -1 -9 5 -9 6 0 9 -3 7 -7 -3 -5 1 -13 8 -20 10 -9 34 3 111 55
176 118 424 260 644 370 l216 107 431 925 c238 509 435 933 438 943 9 23 11
23 -225 -38z"/>
<path d="M11306 17148 c3 -13 15 -39 25 -59 10 -20 15 -39 12 -43 -4 -3 -1 -6
6 -6 7 0 9 -4 6 -10 -3 -5 -2 -10 3 -10 10 0 35 -54 35 -76 0 -8 4 -14 9 -14
5 0 6 -4 3 -10 -3 -5 -2 -10 3 -10 10 0 79 -150 74 -162 -1 -5 2 -8 6 -8 10 0
45 -74 45 -95 0 -8 4 -15 9 -15 5 0 6 -4 3 -10 -3 -5 -2 -10 3 -10 10 0 69
-130 65 -142 -2 -5 2 -8 8 -8 5 0 7 -4 4 -10 -3 -5 -2 -10 4 -10 9 0 45 -83
41 -96 -1 -4 3 -10 9 -13 14 -9 81 -158 74 -165 -4 -3 -1 -6 6 -6 7 0 9 -4 6
-10 -3 -5 -2 -10 3 -10 10 0 35 -54 35 -76 0 -8 4 -14 9 -14 5 0 6 -4 3 -10
-3 -5 -2 -10 4 -10 10 0 27 -38 23 -52 -1 -5 2 -8 7 -8 10 0 37 -69 33 -82 -1
-5 3 -8 9 -8 5 0 7 -4 4 -10 -3 -5 -2 -10 3 -10 10 0 45 -73 45 -95 0 -8 5
-15 10 -15 6 0 8 -3 4 -6 -3 -4 1 -13 9 -21 8 -8 12 -19 9 -24 -4 -5 -2 -9 4
-9 10 0 48 -89 43 -102 -1 -5 3 -8 9 -8 5 0 7 -4 4 -10 -3 -5 -2 -10 3 -10 10
0 45 -73 45 -95 0 -8 4 -15 8 -15 8 0 24 -40 21 -52 -1 -5 2 -8 7 -8 5 0 19
-24 31 -52 l21 -53 207 -102 c232 -114 420 -221 627 -357 l140 -93 323 691
c177 380 322 696 322 702 0 5 -80 58 -177 116 -573 343 -1142 597 -1741 779
-136 41 -547 149 -567 149 -4 0 -3 -10 1 -22z"/>
<path d="M2608 12963 c-428 -883 -679 -1836 -748 -2831 -13 -198 -13 -866 0
-1064 63 -911 282 -1797 649 -2623 313 -701 757 -1396 1259 -1968 154 -176
442 -467 627 -635 831 -752 1866 -1339 2933 -1663 183 -55 562 -152 569 -145
2 2 -193 426 -433 943 l-438 938 -206 102 c-1179 584 -2154 1544 -2761 2718
-326 631 -550 1339 -643 2035 -45 336 -51 438 -51 830 0 236 5 425 13 510 35
357 103 756 178 1039 l35 134 -438 938 c-241 517 -440 939 -444 939 -3 0 -49
-89 -101 -197z"/>
<path d="M16475 13140 c-3 -11 -11 -20 -16 -20 -6 0 -7 -4 -4 -10 3 -5 2 -10
-3 -10 -5 0 -9 -6 -9 -14 0 -22 -25 -76 -35 -76 -5 0 -6 -4 -3 -10 3 -5 1 -10
-4 -10 -6 0 -10 -3 -8 -8 4 -12 -55 -142 -65 -142 -5 0 -6 -4 -3 -10 3 -5 1
-10 -4 -10 -6 0 -10 -3 -9 -7 5 -13 -33 -103 -43 -103 -5 0 -8 -3 -7 -7 3 -13
-13 -53 -21 -53 -4 0 -8 -7 -8 -15 0 -22 -35 -95 -45 -95 -5 0 -6 -4 -3 -10 3
-5 1 -10 -4 -10 -6 0 -10 -3 -9 -7 4 -15 -24 -83 -33 -83 -6 0 -7 -4 -4 -10 3
-5 1 -10 -4 -10 -6 0 -10 -3 -9 -7 3 -13 -13 -53 -21 -53 -4 0 -8 -7 -8 -15 0
-22 -35 -95 -45 -95 -5 0 -6 -4 -3 -10 3 -5 2 -10 -3 -10 -5 0 -9 -6 -9 -14 0
-22 -24 -76 -34 -76 -5 0 -8 -3 -7 -7 4 -15 -13 -53 -23 -53 -6 0 -7 -4 -4
-10 3 -5 2 -10 -3 -10 -5 0 -9 -6 -9 -14 0 -22 -25 -76 -35 -76 -5 0 -6 -4 -3
-10 3 -5 1 -10 -4 -10 -6 0 -10 -3 -9 -7 5 -13 -33 -103 -43 -103 -5 0 -8 -3
-7 -7 3 -13 -13 -53 -21 -53 -4 0 -8 -7 -8 -15 0 -22 -35 -95 -45 -95 -5 0 -6
-4 -3 -10 3 -5 1 -10 -4 -10 -6 0 -10 -3 -8 -8 4 -12 -55 -142 -65 -142 -5 0
-6 -4 -3 -10 3 -5 2 -10 -3 -10 -5 0 -9 -7 -9 -15 0 -23 -35 -95 -46 -95 -6 0
-8 -3 -4 -6 3 -4 -1 -20 -9 -36 -15 -29 -14 -38 20 -167 75 -288 143 -683 178
-1041 8 -85 13 -274 13 -510 0 -392 -6 -494 -51 -830 -93 -696 -317 -1404
-643 -2035 -607 -1174 -1589 -2140 -2763 -2718 l-207 -102 -21 -52 c-12 -29
-26 -53 -31 -53 -5 0 -8 -3 -7 -7 3 -13 -13 -53 -21 -53 -4 0 -8 -7 -8 -15 0
-22 -35 -95 -45 -95 -5 0 -6 -4 -3 -10 3 -5 1 -10 -4 -10 -6 0 -10 -3 -9 -7 5
-14 -33 -103 -43 -103 -6 0 -8 -4 -4 -9 3 -5 -1 -16 -9 -24 -8 -8 -12 -17 -9
-21 4 -3 2 -6 -4 -6 -5 0 -10 -7 -10 -15 0 -22 -35 -95 -45 -95 -5 0 -6 -4 -3
-10 3 -5 1 -10 -4 -10 -6 0 -10 -3 -9 -7 4 -14 -23 -83 -33 -83 -5 0 -8 -3 -7
-7 4 -15 -13 -53 -23 -53 -6 0 -7 -5 -4 -10 3 -6 2 -10 -3 -10 -5 0 -9 -6 -9
-14 0 -22 -25 -76 -35 -76 -5 0 -6 -4 -3 -10 3 -5 1 -10 -6 -10 -7 0 -10 -3
-6 -6 7 -7 -60 -156 -74 -165 -6 -3 -9 -8 -8 -10 7 -8 -33 -99 -42 -99 -6 0
-7 -4 -4 -10 3 -5 1 -10 -4 -10 -6 0 -10 -3 -9 -8 5 -12 -54 -142 -64 -142 -5
0 -6 -4 -3 -10 3 -5 2 -10 -3 -10 -5 0 -9 -7 -9 -15 0 -21 -35 -95 -45 -95 -4
0 -7 -3 -6 -7 5 -13 -64 -163 -74 -163 -5 0 -6 -4 -3 -10 3 -5 2 -10 -3 -10
-5 0 -9 -6 -9 -14 0 -22 -25 -76 -35 -76 -5 0 -6 -4 -3 -10 3 -5 1 -10 -6 -10
-7 0 -10 -3 -7 -6 4 -3 -5 -30 -19 -60 -14 -31 -23 -57 -20 -60 7 -7 382 89
569 145 1067 324 2102 911 2933 1663 700 634 1266 1373 1697 2214 439 858 705
1740 807 2679 33 299 41 469 41 865 0 208 -5 447 -10 532 -59 863 -262 1714
-595 2499 -72 170 -246 529 -256 529 -4 0 -11 -9 -14 -20z"/>
</g>
</svg>
